####
#
# OBJ File Generated by Meshlab
#
####
# Object cone_v4.obj
#
# Vertices: 5
# Faces: 4
#
####
vn 0.000000 0.738099 1.665395
v 0.000000 -2.000000 -2.000000
vn 0.000000 -0.858002 0.000000
v 0.000000 2.000000 0.000000
vn -1.665395 0.738099 0.000000
v 2.000000 -2.000000 0.000000
vn 0.000000 0.738099 -1.665395
v -0.000000 -2.000000 2.000000
vn 1.665395 0.738099 0.000000
v -2.000000 -2.000000 -0.000000
# 5 vertices, 0 vertices normals

f 2//2 4//4 5//5
f 2//2 1//1 3//3
f 2//2 5//5 1//1
f 2//2 3//3 4//4
# 4 faces, 0 coords texture

# End of File